<mxfile host="app.diagrams.net" modified="2022-01-25T05:53:49.924Z" agent="5.0 (Windows NT 10.0; Win64; x64) AppleWebKit/537.36 (KHTML, like Gecko) Chrome/97.0.4692.71 Safari/537.36" etag="2iODh9ijfQPzIj3_LU3k" version="15.1.0" type="github">
  <diagram id="NIgqH8kYPQN_SOv7AuNS" name="Page-1">
    <mxGraphModel dx="1422" dy="754" grid="1" gridSize="10" guides="1" tooltips="1" connect="1" arrows="1" fold="1" page="1" pageScale="1" pageWidth="827" pageHeight="1169" math="0" shadow="0">
      <root>
        <mxCell id="0" />
        <mxCell id="1" parent="0" />
        <mxCell id="BC2wex_rtU6zMLSn18dj-1" value="" style="rounded=0;whiteSpace=wrap;html=1;strokeColor=#97D077;sketch=1;" vertex="1" parent="1">
          <mxGeometry x="10" y="760" width="810" height="90" as="geometry" />
        </mxCell>
        <mxCell id="BC2wex_rtU6zMLSn18dj-3" value="ServiceCollectionExtensions" style="rounded=0;whiteSpace=wrap;html=1;sketch=1;" vertex="1" parent="1">
          <mxGeometry x="20" y="780" width="220" height="60" as="geometry" />
        </mxCell>
        <mxCell id="BC2wex_rtU6zMLSn18dj-4" value="HttpRpcMiddleware" style="rounded=0;whiteSpace=wrap;html=1;strokeColor=#000000;sketch=1;" vertex="1" parent="1">
          <mxGeometry x="260" y="780" width="120" height="60" as="geometry" />
        </mxCell>
        <mxCell id="BC2wex_rtU6zMLSn18dj-5" value="Serializer" style="rounded=0;whiteSpace=wrap;html=1;strokeColor=#000000;sketch=1;" vertex="1" parent="1">
          <mxGeometry x="410" y="780" width="120" height="60" as="geometry" />
        </mxCell>
        <mxCell id="BC2wex_rtU6zMLSn18dj-6" value="Client" style="rounded=0;whiteSpace=wrap;html=1;strokeColor=#000000;sketch=1;" vertex="1" parent="1">
          <mxGeometry x="440" y="690" width="380" height="60" as="geometry" />
        </mxCell>
        <mxCell id="BC2wex_rtU6zMLSn18dj-7" value="OpenApi" style="rounded=0;whiteSpace=wrap;html=1;strokeColor=#000000;sketch=1;" vertex="1" parent="1">
          <mxGeometry x="10" y="690" width="420" height="60" as="geometry" />
        </mxCell>
        <mxCell id="BC2wex_rtU6zMLSn18dj-8" value="Attributes" style="rounded=0;whiteSpace=wrap;html=1;strokeColor=#000000;sketch=1;" vertex="1" parent="1">
          <mxGeometry x="690" y="780" width="120" height="60" as="geometry" />
        </mxCell>
        <mxCell id="BC2wex_rtU6zMLSn18dj-9" value="Abstractions" style="rounded=0;whiteSpace=wrap;html=1;sketch=1;strokeColor=#67AB9F;" vertex="1" parent="1">
          <mxGeometry x="10" y="860" width="810" height="60" as="geometry" />
        </mxCell>
      </root>
    </mxGraphModel>
  </diagram>
</mxfile>
